<svg width="29" height="29" fill="none" xmlns="http://www.w3.org/2000/svg"><path d="M21.75 8.652a.732.732 0 00-.23 0 3.11 3.11 0 01-2.996-3.118 3.11 3.11 0 013.117-3.117 3.117 3.117 0 013.118 3.117 3.128 3.128 0 01-3.009 3.118zm-1.245 8.796c1.656.278 3.48-.012 4.761-.87 1.704-1.135 1.704-2.996 0-4.132-1.293-.858-3.141-1.148-4.797-.858M7.214 8.652a.732.732 0 01.23 0 3.11 3.11 0 002.996-3.118 3.11 3.11 0 00-3.118-3.117 3.117 3.117 0 00-3.117 3.117 3.128 3.128 0 003.009 3.118zm1.244 8.796c-1.655.278-3.48-.012-4.76-.87-1.704-1.135-1.704-2.996 0-4.132 1.292-.858 3.141-1.148 4.797-.858m6.005 6.09a.73.73 0 00-.23 0 3.11 3.11 0 01-2.996-3.118 3.11 3.11 0 013.117-3.117 3.117 3.117 0 013.118 3.117c-.012 1.692-1.341 3.07-3.009 3.118zm-3.516 3.806c-1.704 1.136-1.704 2.997 0 4.133 1.933 1.293 5.099 1.293 7.032 0 1.704-1.136 1.704-2.997 0-4.133-1.921-1.28-5.099-1.28-7.032 0z" stroke="#fff" stroke-width="2" stroke-linecap="round" stroke-linejoin="round"/></svg>